<svg id="Icons" xmlns="http://www.w3.org/2000/svg" width="19.133" height="18.501" viewBox="0 0 19.133 18.501">
  <g id="Black">
    <path id="Facebook" d="M210.22,178.5h-9.163A1.039,1.039,0,0,1,200,177.479V161.021A1.039,1.039,0,0,1,201.057,160h17.021a1.039,1.039,0,0,1,1.056,1.021v16.458a1.039,1.039,0,0,1-1.056,1.021H213.2v-7.164h2.487l.372-2.792H213.2v-1.783c0-.809.232-1.359,1.431-1.359h1.529v-2.5a21.181,21.181,0,0,0-2.228-.11,3.421,3.421,0,0,0-3.714,3.69v2.059h-2.493v2.792h2.493V178.5Z" transform="translate(-200.001 -160)" fill="#f2e209" fill-rule="evenodd"/>
  </g>
</svg>
