<svg id="Group_1" data-name="Group 1" xmlns="http://www.w3.org/2000/svg" width="24" height="24" viewBox="0 0 24 24">
  <rect id="Rectangle_5" data-name="Rectangle 5" width="24" height="24" fill="none"/>
  <rect id="Rectangle_6" data-name="Rectangle 6" width="18" height="18" rx="4" transform="translate(3 3)" fill="#f2e209"/>
  <path id="Path_3" data-name="Path 3" d="M111.674,199.305a6.161,6.161,0,0,0-6.11-6.205H95.21a6.161,6.161,0,0,0-6.11,6.205v10.518a6.161,6.161,0,0,0,6.11,6.205h10.355a6.161,6.161,0,0,0,6.11-6.205Zm-1.864,0v10.518a4.281,4.281,0,0,1-4.246,4.312H95.21a4.281,4.281,0,0,1-4.246-4.312V199.305a4.281,4.281,0,0,1,4.246-4.312h10.355A4.281,4.281,0,0,1,109.81,199.305Zm-4.36,4.457a5.124,5.124,0,0,0-4.275-4.342,4.9,4.9,0,0,0-.745-.056,5.148,5.148,0,1,0,5.019,4.4Zm-1.843.278a3.369,3.369,0,0,1,.034.479,3.26,3.26,0,1,1-.034-.479Zm2.475-6.208a.947.947,0,1,1-.932.947A.939.939,0,0,1,106.083,197.833Z" transform="translate(-88.488 -192.469)" fill="#272727" fill-rule="evenodd"/>
</svg>
